<svg viewBox="0 0 600 1000" fill="none" xmlns="http://www.w3.org/2000/svg">
<rect y="200" width="200" height="550" fill="#4E99B2" fill-opacity="0.3"/>
<rect x="400" y="200" width="200" height="550" fill="#4E99B2" fill-opacity="0.3"/>
<path d="M300 0L559.808 750H40.1924L300 0Z" fill="#F4CF1B" fill-opacity="0.35"/>
<path d="M459.988 772.649C459.588 769.446 449.162 760.97 443.999 757.133C435.005 757.3 416.917 759.936 416.517 769.145C416.118 778.355 417.017 782.326 417.517 783.16C422.347 797.842 431.407 827.506 429.009 828.707C416.517 833.211 417.517 838.717 417.517 840.219C417.517 841.42 425.178 841.72 429.009 841.72C429.009 842.221 429.608 843.322 432.007 843.722C452.393 845.324 456.5 843.055 456.5 841.72C455 835.5 459.988 836.215 459.988 832.21C459.988 828.206 457.903 807.4 455.991 796.674C463.985 776.152 460.488 776.653 459.988 772.649Z" fill="#F9C3A5"/>
<path d="M169.185 793.17C169.734 791.891 169.396 788.445 165.687 783.16C165.687 772.749 143.702 768.311 132.709 768.144C134.073 769.137 126.948 792.739 124.715 796.173C123.321 798.316 120.731 815.085 120.218 815.693C118.386 818.029 114.422 823.601 113.223 827.205C106.727 828.707 104.728 832.711 102.23 835.213C99.7317 837.716 101.73 841.22 102.23 842.721C102.73 844.223 111.724 844.723 114.721 844.723C115.721 846.225 135.707 841.22 137.206 839.218C138.405 838.817 140.038 831.042 140.704 827.205C140.704 823.701 142.203 815.393 148.199 810.188C164.588 804.982 169.018 796.674 169.185 793.17Z" fill="#F9C3A5"/>
<path d="M237.139 358.721C222.349 385.148 216.319 418.116 215.154 431.296C216.653 448.313 296.598 434.299 291.602 425.29C287.604 418.082 298.93 407.271 305.093 402.766C284.607 386.416 242.335 354.717 237.139 358.721Z" fill="#F9C3A5"/>
<path d="M345.565 288.148C344.566 294.154 381.541 317.178 386.038 316.177C393.037 310.808 395.154 306.597 397.53 298.158L399.529 291.652C399.003 293.654 404.026 295.255 408.023 297.658C413.02 300.661 423.013 295.155 424.512 292.653C426.011 290.15 424.012 284.144 423.013 282.642C422.213 281.441 421.68 277.137 419.016 276.135L426.011 248.106C426.677 240.932 426.81 225.583 422.013 221.579C422.013 218.776 413.353 218.075 409.022 218.075C403.426 218.075 395.032 222.08 392.034 225.083C390.701 225.917 387.837 227.886 387.037 229.087C387.037 230.288 383.04 232.924 381.041 234.092C380.542 234.593 378.943 235.894 376.544 237.095C373.546 238.597 370.049 237.095 370.049 242.601C367.321 244.34 362.054 249.108 359.056 255.614C356.058 257.616 353.56 260.842 353.56 263.122C351.161 264.724 358.556 272.632 360.055 277.137C358.39 278.138 353.06 281.141 345.565 288.148Z" fill="#F9C3A5"/>
<path d="M375.045 364.727C374.212 364.393 371.747 363.926 368.55 364.727C366.951 363.926 377.877 351.714 383.54 345.707C384.539 345.207 387.037 343.605 389.036 341.203C391.034 338.8 412.52 350.879 423.013 357.219C434.838 366.896 459.088 386.95 461.487 389.753C463.885 392.556 479.808 408.606 487.469 416.28C488.668 417.482 499.961 429.294 503.958 431.296C506.956 430.795 507.456 430.795 508.455 431.296C509.527 431.833 509.621 435.133 509.454 436.802C510.454 438.47 513.651 442.207 518.448 443.809C522.845 443.809 540.933 444.309 546.429 448.814C547.095 449.982 547.728 452.518 544.93 453.319C527.942 452.318 530.44 454.82 531.439 455.321C532.439 455.821 543.431 464.33 544.93 466.332C546.429 468.334 543.431 470.336 540.933 470.837C538.934 471.237 528.441 464.664 523.445 461.327C521.779 460.66 518.648 460.626 519.447 465.832C519.048 471.037 521.946 478.011 523.445 480.847C523.611 482.182 523.045 484.651 519.447 483.85C515.45 484.251 511.164 471.337 508.955 465.331C507.789 462.161 505.057 457.723 503.458 465.331C501.46 465.832 499.961 476.843 498.462 477.844C497.718 478.341 496.296 478.178 495.464 477.844C494.797 477.677 493.465 475.842 493.465 469.836C495.131 465.498 498.462 457.823 497.462 456.322C496.967 455.577 495.797 454.153 495.464 453.319C486.969 448.814 485.97 443.809 482.472 439.805C474.978 436.301 419.515 395.259 417.516 392.256C414.718 391.855 388.036 373.736 375.045 364.727Z" fill="#F9C3A5"/>
<path d="M344.066 377.24C335.272 384.047 326.079 388.418 322.581 389.753C318.184 389.753 306.758 383.747 301.595 380.744L303.094 366.729L352.561 321.182L360.555 297.658C367.217 300.494 381.741 308.269 386.538 316.677C390.535 324.686 386.871 337.365 384.539 342.704C374.05 357.249 366.781 363.88 351.561 373.236C350.562 373.57 347.664 374.838 344.066 377.24Z" fill="#F9C3A5"/>
<path d="M345.565 286.146C346.365 290.15 351.894 294.488 354.559 296.156C358.956 304.965 353.726 316.844 350.562 321.683C340.569 333.194 316.685 357.219 301.095 361.223C285.506 365.228 278.277 351.213 276.612 343.705C275.613 332.861 274.813 310.571 279.61 308.169C284.407 305.766 285.273 300.16 285.106 297.658C284.606 296.657 277.216 291.554 268.617 284.144C266.905 282.668 265.208 281.116 263.546 279.572L253.627 270.63C249.914 267.659 247.223 266.038 246.133 265.625C227.645 258.617 208.158 247.721 195.667 238.096C193.502 236.428 188.771 232.991 187.172 232.59C173.182 230.088 173.182 228.586 171.683 227.585C170.484 226.784 168.518 227.585 167.686 228.086C163.688 230.588 154.095 235.794 147.699 236.595C138.505 235.794 141.87 232.59 144.701 231.089C147.2 230.088 151.197 225.701 151.197 224.582C151.197 224.082 150.697 223.081 150.198 223.081C149.531 222.914 146.7 222.58 140.704 222.58C134.708 223.381 132.876 222.246 132.709 221.579C132.043 220.077 131.91 216.674 136.707 215.072C141.204 214.739 150.697 215.072 149.698 212.57C149.198 211.318 140.704 206.564 138.705 206.063C137.106 205.663 137.373 203.227 137.706 202.059C137.539 201.392 138.505 200.157 143.702 200.557C148.898 200.958 158.192 208.065 162.189 211.569C163.022 212.737 165.287 214.572 167.686 212.57C170.484 204.962 179.844 202.393 184.174 202.059C189.671 198.555 192.169 187.544 196.166 184.04C202.162 179.536 202.662 179.536 206.16 179.035C209.657 178.535 210.157 183.54 210.157 184.541C210.157 185.436 209.657 185.875 209.158 186.042C207.659 186.376 204.161 188.345 202.162 193.55C201.763 201.558 203.328 206.897 204.161 209.567C208.658 213.07 218.951 220.178 224.147 220.578C230.643 221.079 246.632 226.584 252.628 229.587C256.625 231.089 266.952 239.931 271.116 244.102C272.748 244.648 277.204 245.841 282.108 248.607C290.103 253.612 301.595 261.62 309.09 263.623C310.589 264.123 317.084 265.324 327.078 268.127C339.569 271.631 344.566 281.141 345.565 286.146Z" fill="#F9C3A5"/>
<path d="M242.135 788.665C220.483 791.668 168.185 791.769 132.21 768.144C130.211 766.543 141.37 740.115 147.2 727.102C147.866 722.931 150.107 712.963 150.5 711C151 708.5 168.356 666 168.685 663.035C169.351 657.029 172.682 640.512 176.68 633.505C178.798 629.792 179.844 619.49 181.177 614.485C183.175 614.485 201.663 521.89 201.663 518.386C204.626 505.63 206.061 498.712 208.158 486.853C208.353 485.752 209.158 466.332 210.657 461.827C210.657 458.624 213.167 453 214 453.5C241.41 504.164 282.608 609.48 279.11 624.996C281.109 632.604 254.127 743.619 242.135 788.665Z" fill="#C8B8AF"/>
<path d="M366.551 784.661C375.745 783.86 432.007 772.649 444.498 758.134C443.332 755.131 440.801 747.623 440.001 741.617C439.002 734.109 424.012 661.033 397.53 640.512C395.531 637.009 387.738 623.995 382.54 619.49C380.808 617.989 371.048 603.474 370.548 600.971C370.049 598.469 347.363 552.036 346.565 550.419C336.532 530.105 335.078 522.466 336 512C336 510 336 501.5 336.5 497.5C338.5 491.5 336.5 473 331.075 463.829C327.244 456.822 317.484 442.007 309.09 438.804C306.592 432.797 296.598 424.289 290.602 422.787C280.11 419.283 257.125 423.788 249.63 428.293C242.135 432.797 216.653 430.795 215.653 430.295C214.654 429.794 211.156 433.798 212.655 437.302C213.854 440.105 213.155 450.149 212.655 454.82C212.655 465.331 248.631 566.436 274.114 617.488C280.11 629.501 315.086 702.076 321.581 751.127C324.746 764.307 331.775 790.367 334.573 789.166C337.371 787.965 357.057 785.662 366.551 784.661Z" fill="#C8B8AF"/>
<path d="M236.14 358.721C236.06 362.993 259.584 382.003 269.617 388.251C282.574 396.37 288.408 398.128 300.096 403.767C306.051 405.639 308.59 403.267 314.586 397.261C320.781 391.454 324.742 387.959 321.582 386.75C312.161 383.642 306.012 379.958 307.591 375.238C314.113 358.404 329.318 350.186 352.061 326.187C354.414 324.15 361.809 316.347 363.054 310.671C363.6 308.178 363.054 302.663 361.055 299.159C359.223 298.158 355.858 296.356 353.06 295.155C350.262 293.954 350.562 295.656 351.062 296.657C357.557 304.665 341.639 329.635 305.093 353.716C290.777 355.362 285.103 353.681 283.108 341.703C283.108 339.701 281.609 329.691 279.111 324.185C282.266 305.927 288.604 302.162 289.104 300.661C289.603 299.159 283.607 297.157 283.108 298.659C282.708 299.86 273.614 303.163 269.117 304.665C253.528 309.069 247.132 328.69 247.132 341.703C243.135 346.041 236.201 355.42 236.14 358.721Z" fill="#121110"/>
<path d="M385.039 346.708C375.263 360.607 366.892 365.779 350.562 373.736C370.71 357.097 377.712 349.446 384.039 338.7H390.535L385.039 346.708Z" fill="#121110"/>
<path d="M411.521 269.128C410.022 265.625 412.004 253.464 419.515 247.606C427.887 234.581 423.574 225.982 410.022 220.077C405.586 216.338 414.942 215.236 425.011 214.572C431.807 214.972 442.5 222.08 446.997 227.085C452.493 232.09 464.984 263.122 464.984 281.141C464.585 293.153 468.482 319.18 474.978 332.193C479.774 337.399 482.173 343.705 481.973 347.709C481.64 354.383 482.473 368.731 488.468 372.735C507.655 384.748 507.123 398.429 504.458 403.767C498.861 408.572 492.965 419.784 492.965 426.791C489.468 432.631 480.974 443.408 474.978 439.805C468.982 436.201 464.485 438.303 462.986 439.805C457.489 444.81 441.001 441.306 439.502 430.795C438.554 424.148 417.517 419.784 412.52 419.784C407.523 419.784 404.525 402.266 402.527 397.761C400.928 394.157 396.864 396.927 395.032 398.762C394.199 399.93 392.134 401.065 390.535 396.26C388.936 391.455 390.535 378.575 391.534 372.735C392.867 368.064 395.232 358.521 394.032 357.72C389.236 356.919 386.704 352.715 386.038 350.713C385.372 345.874 383.739 335.997 382.54 335.196C374.945 332.794 374.379 328.857 375.545 327.188C383.54 320.014 396.031 302.663 396.031 297.658C396.031 291.828 398.696 290.65 400.028 290.65C404.5 293.5 413.261 292.115 414.5 291C419.5 286.5 419 284 417.5 278.5C416 273 413.02 272.632 411.521 269.128Z" fill="#010101"/>
</svg>
