<svg viewBox="0 0 446 666" fill="none" xmlns="http://www.w3.org/2000/svg">
<path d="M358.988 593.649C358.588 590.445 348.162 581.97 342.999 578.133C334.005 578.3 315.917 580.936 315.517 590.145C315.118 599.355 316.017 603.325 316.517 604.16C321.347 618.842 330.407 648.506 328.009 649.707C315.517 654.211 316.517 659.717 316.517 661.219C316.517 662.42 324.178 662.72 328.009 662.72C328.009 663.221 328.608 664.322 331.007 664.722C351.393 666.324 355.5 664.055 355.5 662.72C354 656.5 358.988 657.215 358.988 653.21C358.988 649.206 356.903 628.4 354.991 617.674C362.985 597.152 359.487 597.653 358.988 593.649Z" fill="#F9C3A5"/>
<path d="M68.1846 614.17C68.7336 612.891 68.3964 609.445 64.687 604.16C64.687 593.749 42.7019 589.311 31.7094 589.144C33.073 590.137 25.9478 613.739 23.7148 617.173C22.3208 619.317 19.7308 636.085 19.2178 636.693C17.3857 639.029 13.4217 644.601 12.2226 648.205C5.72696 649.707 3.72827 653.711 1.22996 656.213C-1.26835 658.716 0.730298 662.22 1.22996 663.721C1.72962 665.223 10.7235 665.723 13.7215 665.723C14.7208 667.225 34.7073 662.22 36.2063 660.218C37.4055 659.817 39.0377 652.042 39.7039 648.205C39.7039 644.702 41.2029 636.393 47.1988 631.188C63.5877 625.982 68.018 617.674 68.1846 614.17Z" fill="#F9C3A5"/>
<path d="M136.139 179.721C121.349 206.148 115.32 239.116 114.154 252.296C115.653 269.313 195.598 255.299 190.602 246.29C186.605 239.082 197.93 228.271 204.093 223.766C183.607 207.416 141.335 175.717 136.139 179.721Z" fill="#F9C3A5"/>
<path d="M244.565 109.148C243.566 115.154 280.541 138.178 285.038 137.177C292.037 131.808 294.154 127.597 296.53 119.158L298.529 112.652C298.003 114.654 303.026 116.255 307.023 118.658C312.02 121.661 322.013 116.155 323.512 113.653C325.011 111.15 323.012 105.144 322.013 103.642C321.213 102.441 320.68 98.1365 318.016 97.1355L325.011 69.1065C325.677 61.9324 325.81 46.5832 321.013 42.5791C321.013 39.7762 312.353 39.0754 308.022 39.0754C302.426 39.0754 294.032 43.0796 291.034 46.0827C289.701 46.9169 286.837 48.8856 286.037 50.0868C286.037 51.2881 282.04 53.9241 280.041 55.092C279.542 55.5925 277.943 56.8939 275.544 58.0951C272.546 59.5967 269.049 58.0951 269.049 63.6008C266.321 65.3395 261.054 70.1075 258.056 76.6143C255.058 78.6163 252.56 81.8416 252.56 84.122C250.161 85.7237 257.556 93.6318 259.055 98.1365C257.39 99.1375 252.06 102.141 244.565 109.148Z" fill="#F9C3A5"/>
<path d="M274.045 185.727C273.212 185.393 270.747 184.926 267.55 185.727C265.951 184.926 276.877 172.714 282.54 166.707C283.539 166.207 286.037 164.605 288.036 162.203C290.034 159.8 311.52 171.879 322.013 178.219C333.838 187.896 358.088 207.95 360.487 210.753C362.885 213.556 378.808 229.606 386.469 237.28C387.668 238.482 398.961 250.294 402.958 252.296C405.956 251.795 406.456 251.795 407.455 252.296C408.527 252.833 408.621 256.133 408.454 257.802C409.454 259.47 412.651 263.207 417.448 264.809C421.845 264.809 439.933 265.309 445.429 269.814C446.095 270.982 446.728 273.518 443.93 274.319C426.942 273.318 429.44 275.82 430.439 276.321C431.439 276.821 442.431 285.33 443.93 287.332C445.429 289.334 442.431 291.336 439.933 291.837C437.934 292.237 427.441 285.664 422.445 282.327C420.779 281.66 417.648 281.626 418.447 286.832C418.048 292.037 420.946 299.011 422.445 301.847C422.611 303.182 422.045 305.651 418.447 304.85C414.45 305.251 410.164 292.337 407.955 286.331C406.789 283.161 404.057 278.723 402.458 286.331C400.46 286.832 398.961 297.843 397.462 298.844C396.718 299.341 395.296 299.178 394.464 298.844C393.797 298.677 392.465 296.842 392.465 290.836C394.131 286.498 397.462 278.823 396.462 277.322C395.967 276.577 394.797 275.153 394.464 274.319C385.969 269.814 384.97 264.809 381.472 260.805C373.978 257.301 318.515 216.259 316.516 213.256C313.718 212.855 287.036 194.736 274.045 185.727Z" fill="#F9C3A5"/>
<path d="M243.066 198.24C234.272 205.047 225.078 209.418 221.581 210.753C217.184 210.753 205.758 204.747 200.595 201.744L202.094 187.729L251.561 142.182L259.555 118.658C266.217 121.494 280.741 129.269 285.538 137.677C289.535 145.686 285.871 158.365 283.539 163.704C273.05 178.249 265.781 184.88 250.561 194.236C249.562 194.57 246.664 195.838 243.066 198.24Z" fill="#F9C3A5"/>
<path d="M244.565 107.146C245.365 111.15 250.894 115.488 253.559 117.156C257.956 125.965 252.726 137.844 249.562 142.683C239.569 154.194 215.685 178.219 200.095 182.223C184.506 186.228 177.277 172.213 175.612 164.705C174.613 153.861 173.813 131.571 178.61 129.169C183.407 126.766 184.273 121.16 184.106 118.658C183.606 117.657 176.216 112.554 167.617 105.144C165.905 103.668 164.208 102.116 162.546 100.572L152.627 91.6298C148.914 88.659 146.223 87.0381 145.133 86.6246C126.645 79.6173 107.158 68.7215 94.6667 59.0961C92.5015 57.4277 87.7714 53.9908 86.1725 53.5904C72.1819 51.0878 72.1819 49.5863 70.6829 48.5853C69.4838 47.7844 67.5184 48.5853 66.6857 49.0858C62.6884 51.5884 53.0949 56.7937 46.6992 57.5946C37.5054 56.7937 40.8698 53.5904 43.7012 52.0889C46.1995 51.0878 50.1968 46.7013 50.1968 45.5822C50.1968 45.0816 49.6972 44.0806 49.1975 44.0806C48.5313 43.9138 45.6999 43.5801 39.7039 43.5801C33.708 44.3809 31.8759 43.2464 31.7093 42.5791C31.0431 41.0775 30.9098 37.674 35.7066 36.0723C40.2035 35.7386 49.6971 36.0723 48.6978 33.5697C48.1981 32.3184 39.7039 27.5635 37.7053 27.063C36.1064 26.6626 36.3728 24.2267 36.7059 23.0589C36.5394 22.3915 37.5054 21.1569 42.7019 21.5573C47.8984 21.9577 57.1921 29.0651 61.1894 32.5687C62.0221 33.7366 64.2873 35.5718 66.6856 33.5697C69.4837 25.9619 78.8441 23.3926 83.1745 23.0589C88.6707 19.5553 91.169 8.54387 95.1663 5.04025C101.162 0.535594 101.662 0.535594 105.16 0.0350764C108.657 -0.465441 109.157 4.53973 109.157 5.54078C109.157 6.43613 108.657 6.87549 108.158 7.04233C106.659 7.37601 103.161 9.34471 101.162 14.5501C100.763 22.5584 102.328 27.8972 103.161 30.5666C107.658 34.0703 117.951 41.1776 123.147 41.578C129.643 42.0785 145.632 47.5842 151.628 50.5873C155.625 52.0889 165.952 60.9314 170.116 65.1023C171.748 65.6475 176.204 66.841 181.108 69.607C189.103 74.6122 200.595 82.6205 208.09 84.6226C209.589 85.1231 216.084 86.3243 226.078 89.1272C238.569 92.6308 243.566 102.141 244.565 107.146Z" fill="#F9C3A5"/>
<path d="M141.135 609.665C119.483 612.668 67.1853 612.769 31.2097 589.144C29.211 587.542 40.3701 561.115 46.1995 548.102C46.8657 543.931 49.1074 533.963 49.5 532C50 529.5 67.3561 487 67.685 484.035C68.3512 478.029 71.6823 461.512 75.6796 454.505C77.7976 450.792 78.8441 440.49 80.1765 435.485C82.1751 435.485 100.663 342.89 100.663 339.386C103.626 326.63 105.061 319.712 107.158 307.853C107.353 306.751 108.158 287.332 109.657 282.827C109.657 279.624 112.167 273.999 113 274.5C140.41 325.164 181.608 430.48 178.11 445.996C180.109 453.604 153.127 564.619 141.135 609.665Z" fill="#C8B8AF"/>
<path d="M265.551 605.661C274.745 604.86 331.007 593.649 343.498 579.134C342.332 576.131 339.801 568.623 339.001 562.617C338.002 555.109 323.012 482.033 296.53 461.512C294.531 458.009 286.738 444.995 281.54 440.49C279.808 438.989 270.048 424.474 269.548 421.971C269.049 419.469 246.363 373.036 245.565 371.419C235.532 351.105 234.078 343.466 235 333C235 331 235 322.5 235.5 318.5C237.5 312.5 235.5 294 230.075 284.829C226.244 277.822 216.484 263.007 208.09 259.804C205.592 253.797 195.598 245.289 189.603 243.787C179.11 240.283 156.125 244.788 148.63 249.293C141.135 253.797 115.653 251.795 114.653 251.295C113.654 250.794 110.156 254.798 111.655 258.302C112.855 261.105 112.155 271.149 111.655 275.82C111.655 286.331 147.631 387.436 173.114 438.488C179.11 450.501 214.086 523.076 220.582 572.127C223.746 585.307 230.775 611.367 233.573 610.166C236.371 608.965 256.057 606.662 265.551 605.661Z" fill="#C8B8AF"/>
<path d="M135.14 179.721C135.06 183.993 158.584 203.003 168.617 209.251C181.574 217.37 187.408 219.128 199.096 224.767C205.051 226.639 207.59 224.267 213.586 218.261C219.781 212.454 223.742 208.959 220.582 207.75C211.161 204.642 205.012 200.959 206.591 196.238C213.113 179.404 228.318 171.186 251.061 147.187C253.414 145.15 260.809 137.347 262.054 131.671C262.6 129.178 262.054 123.663 260.055 120.159C258.223 119.158 254.858 117.356 252.06 116.155C249.262 114.954 249.562 116.656 250.062 117.657C256.557 125.665 240.639 150.635 204.093 174.716C189.777 176.362 184.103 174.681 182.108 162.703C182.108 160.701 180.609 150.691 178.111 145.185C181.266 126.927 187.604 123.162 188.104 121.661C188.603 120.159 182.607 118.157 182.108 119.659C181.708 120.86 172.614 124.163 168.117 125.665C152.528 130.07 146.132 149.69 146.132 162.703C142.135 167.041 135.201 176.42 135.14 179.721Z" fill="#121110"/>
<path d="M284.039 167.708C274.263 181.607 265.892 186.779 249.562 194.736C269.71 178.098 276.712 170.446 283.039 159.7H289.535L284.039 167.708Z" fill="#121110"/>
<path d="M310.521 90.1282C309.022 86.6246 311.004 74.4635 318.515 68.6059C326.887 55.5812 322.574 46.9817 309.022 41.0775C304.586 37.3379 313.942 36.2356 324.011 35.5718C330.807 35.9722 341.5 43.0796 345.997 48.0847C351.493 53.0899 363.984 84.122 363.984 102.141C363.585 114.153 367.482 140.18 373.978 153.193C378.774 158.399 381.173 164.705 380.973 168.709C380.64 175.383 381.473 189.731 387.468 193.735C406.655 205.748 406.123 219.429 403.458 224.767C397.861 229.572 391.965 240.784 391.965 247.791C388.468 253.631 379.974 264.408 373.978 260.805C367.982 257.201 363.485 259.303 361.986 260.805C356.489 265.81 340.001 262.306 338.502 251.795C337.554 245.148 316.517 240.784 311.52 240.784C306.523 240.784 303.525 223.266 301.527 218.761C299.928 215.157 295.864 217.927 294.032 219.762C293.199 220.93 291.134 222.065 289.535 217.26C287.936 212.455 289.535 199.575 290.534 193.735C291.867 189.064 294.232 179.521 293.032 178.72C288.236 177.919 285.704 173.715 285.038 171.713C284.372 166.874 282.739 156.997 281.54 156.196C273.945 153.794 273.379 149.857 274.545 148.188C282.54 141.014 295.031 123.663 295.031 118.658C295.031 112.828 297.696 111.65 299.028 111.65C303.5 114.5 312.261 113.115 313.5 112C318.5 107.5 318 105 316.5 99.5C315 94 312.02 93.6318 310.521 90.1282Z" fill="#010101"/>
</svg>
